<svg xmlns="http://www.w3.org/2000/svg" width="128" height="128" viewBox="0 0 128 128">
  <rect width="128" height="128" fill="#3B82F6" rx="16"/>
  <path d="M32 24 L32 104 Q32 108 36 108 L92 108 Q96 108 96 104 L96 24 Q96 20 92 20 L36 20 Q32 20 32 24 Z" fill="white" stroke="#1E40AF" stroke-width="2"/>
  <path d="M32 24 L32 104 Q32 108 36 108 L48 108 L48 24 Q48 20 44 20 L36 20 Q32 20 32 24 Z" fill="#DBEAFE"/>
  <line x1="48" y1="36" x2="88" y2="36" stroke="#1E40AF" stroke-width="2"/>
  <line x1="48" y1="48" x2="88" y2="48" stroke="#1E40AF" stroke-width="2"/>
  <line x1="48" y1="60" x2="88" y2="60" stroke="#1E40AF" stroke-width="2"/>
  <line x1="48" y1="72" x2="80" y2="72" stroke="#1E40AF" stroke-width="2"/>
  <line x1="48" y1="84" x2="72" y2="84" stroke="#1E40AF" stroke-width="2"/>
</svg>